<mxfile host="65bd71144e">
    <diagram id="dAKphtGOxsGxhjZ26f8s" name="Page-1">
        <mxGraphModel dx="1424" dy="779" grid="1" gridSize="10" guides="1" tooltips="1" connect="1" arrows="1" fold="1" page="1" pageScale="1" pageWidth="850" pageHeight="1100" math="0" shadow="0">
            <root>
                <mxCell id="0"/>
                <mxCell id="1" parent="0"/>
                <mxCell id="12" value="" style="html=1;elbow=vertical;" edge="1" parent="1" source="2" target="3">
                    <mxGeometry relative="1" as="geometry"/>
                </mxCell>
                <mxCell id="14" value="" style="html=1;elbow=vertical;" edge="1" parent="1" source="2" target="4">
                    <mxGeometry relative="1" as="geometry"/>
                </mxCell>
                <mxCell id="15" value="" style="html=1;elbow=vertical;" edge="1" parent="1" source="2" target="6">
                    <mxGeometry relative="1" as="geometry"/>
                </mxCell>
                <mxCell id="16" value="" style="html=1;elbow=vertical;" edge="1" parent="1" source="2" target="5">
                    <mxGeometry relative="1" as="geometry"/>
                </mxCell>
                <mxCell id="17" value="" style="html=1;elbow=vertical;" edge="1" parent="1" source="2" target="8">
                    <mxGeometry relative="1" as="geometry"/>
                </mxCell>
                <mxCell id="18" value="" style="html=1;elbow=vertical;" edge="1" parent="1" source="2" target="10">
                    <mxGeometry relative="1" as="geometry"/>
                </mxCell>
                <mxCell id="2" value="main.js" style="rounded=0;whiteSpace=wrap;html=1;" parent="1" vertex="1">
                    <mxGeometry x="365" y="40" width="120" height="60" as="geometry"/>
                </mxCell>
                <mxCell id="19" value="" style="html=1;startArrow=none;elbow=vertical;" edge="1" parent="1" source="4" target="7">
                    <mxGeometry relative="1" as="geometry"/>
                </mxCell>
                <mxCell id="20" value="" style="html=1;elbow=vertical;" edge="1" parent="1" source="3" target="11">
                    <mxGeometry relative="1" as="geometry"/>
                </mxCell>
                <mxCell id="3" value="Paint.js" style="rounded=0;whiteSpace=wrap;html=1;" vertex="1" parent="1">
                    <mxGeometry x="150" y="180" width="120" height="60" as="geometry"/>
                </mxCell>
                <mxCell id="21" value="" style="html=1;elbow=vertical;" edge="1" parent="1" source="4" target="7">
                    <mxGeometry relative="1" as="geometry"/>
                </mxCell>
                <mxCell id="22" value="" style="html=1;elbow=vertical;" edge="1" parent="1" source="4" target="11">
                    <mxGeometry relative="1" as="geometry"/>
                </mxCell>
                <mxCell id="26" value="" style="html=1;startArrow=none;elbow=vertical;" edge="1" parent="1" source="10" target="11">
                    <mxGeometry relative="1" as="geometry"/>
                </mxCell>
                <mxCell id="27" value="" style="html=1;elbow=vertical;" edge="1" parent="1" source="5" target="7">
                    <mxGeometry relative="1" as="geometry"/>
                </mxCell>
                <mxCell id="5" value="Technologies.js" style="rounded=0;whiteSpace=wrap;html=1;" vertex="1" parent="1">
                    <mxGeometry x="570" y="180" width="120" height="60" as="geometry"/>
                </mxCell>
                <mxCell id="24" value="" style="html=1;elbow=vertical;" edge="1" parent="1" source="6" target="7">
                    <mxGeometry relative="1" as="geometry"/>
                </mxCell>
                <mxCell id="25" value="" style="html=1;elbow=vertical;" edge="1" parent="1" source="6" target="11">
                    <mxGeometry relative="1" as="geometry"/>
                </mxCell>
                <mxCell id="6" value="Wheels.js" style="rounded=0;whiteSpace=wrap;html=1;" vertex="1" parent="1">
                    <mxGeometry x="430" y="180" width="120" height="60" as="geometry"/>
                </mxCell>
                <mxCell id="7" value="database.json" style="rounded=0;whiteSpace=wrap;html=1;" vertex="1" parent="1">
                    <mxGeometry x="290" y="430" width="120" height="60" as="geometry"/>
                </mxCell>
                <mxCell id="30" value="" style="html=1;elbow=vertical;" edge="1" parent="1" source="8" target="7">
                    <mxGeometry relative="1" as="geometry"/>
                </mxCell>
                <mxCell id="8" value="Order.js" style="rounded=0;whiteSpace=wrap;html=1;" vertex="1" parent="1">
                    <mxGeometry x="10" y="180" width="120" height="60" as="geometry"/>
                </mxCell>
                <mxCell id="29" value="" style="html=1;elbow=vertical;" edge="1" parent="1" source="9" target="7">
                    <mxGeometry relative="1" as="geometry"/>
                </mxCell>
                <mxCell id="9" value="OrdersList.js" style="rounded=0;whiteSpace=wrap;html=1;" vertex="1" parent="1">
                    <mxGeometry x="10" y="430" width="120" height="60" as="geometry"/>
                </mxCell>
                <mxCell id="11" value="TransientState.js" style="rounded=0;whiteSpace=wrap;html=1;" vertex="1" parent="1">
                    <mxGeometry x="430" y="430" width="120" height="60" as="geometry"/>
                </mxCell>
                <mxCell id="23" value="" style="html=1;endArrow=none;elbow=vertical;" edge="1" parent="1" source="3" target="4">
                    <mxGeometry relative="1" as="geometry">
                        <mxPoint x="292.44897959183675" y="120" as="sourcePoint"/>
                        <mxPoint x="327.55102040816325" y="550" as="targetPoint"/>
                    </mxGeometry>
                </mxCell>
                <mxCell id="4" value="Interiors.js" style="rounded=0;whiteSpace=wrap;html=1;" vertex="1" parent="1">
                    <mxGeometry x="290" y="180" width="120" height="60" as="geometry"/>
                </mxCell>
                <mxCell id="28" value="" style="html=1;endArrow=none;elbow=vertical;" edge="1" parent="1" source="5" target="10">
                    <mxGeometry relative="1" as="geometry">
                        <mxPoint x="535.4545454545455" y="270" as="sourcePoint"/>
                        <mxPoint x="494.5454545454545" y="540" as="targetPoint"/>
                    </mxGeometry>
                </mxCell>
                <mxCell id="10" value="PlaceOrder.js" style="rounded=0;whiteSpace=wrap;html=1;" vertex="1" parent="1">
                    <mxGeometry x="570" y="430" width="120" height="60" as="geometry"/>
                </mxCell>
                <mxCell id="31" value="" style="html=1;elbow=vertical;" edge="1" parent="1">
                    <mxGeometry relative="1" as="geometry">
                        <mxPoint x="468.92857142857156" y="100" as="sourcePoint"/>
                        <mxPoint x="586.0714285714287" y="180" as="targetPoint"/>
                    </mxGeometry>
                </mxCell>
                <mxCell id="32" value="" style="html=1;elbow=vertical;" edge="1" parent="1">
                    <mxGeometry relative="1" as="geometry">
                        <mxPoint x="440.7692307692307" y="100" as="sourcePoint"/>
                        <mxPoint x="614.2307692307693" y="430" as="targetPoint"/>
                    </mxGeometry>
                </mxCell>
                <mxCell id="33" value="" style="html=1;endArrow=none;elbow=vertical;" edge="1" parent="1">
                    <mxGeometry relative="1" as="geometry">
                        <mxPoint x="630" y="240" as="sourcePoint"/>
                        <mxPoint x="630" y="430" as="targetPoint"/>
                    </mxGeometry>
                </mxCell>
                <mxCell id="34" value="" style="html=1;elbow=vertical;" edge="1" parent="1">
                    <mxGeometry relative="1" as="geometry">
                        <mxPoint x="596.4000000000001" y="240" as="sourcePoint"/>
                        <mxPoint x="383.5999999999999" y="430" as="targetPoint"/>
                    </mxGeometry>
                </mxCell>
                <mxCell id="35" value="" style="html=1;elbow=vertical;" edge="1" parent="1">
                    <mxGeometry relative="1" as="geometry">
                        <mxPoint x="490" y="240" as="sourcePoint"/>
                        <mxPoint x="490" y="430" as="targetPoint"/>
                    </mxGeometry>
                </mxCell>
            </root>
        </mxGraphModel>
    </diagram>
</mxfile>